<svg xmlns="http://www.w3.org/2000/svg" viewBox="0 0 512 512" width="512" height="512"><metadata><rdf:RDF xmlns:rdf="http://www.w3.org/1999/02/22-rdf-syntax-ns#" xmlns:dc="http://purl.org/dc/elements/1.1/"><rdf:Description><dc:creator>RealFaviconGenerator</dc:creator><dc:source>https://realfavicongenerator.net</dc:source></rdf:Description></rdf:RDF></metadata><rect width="512" height="512" rx="96" fill="#0f172a"></rect><circle cx="256" cy="256" r="180" fill="#10b981" opacity="0.08"></circle><rect x="136" y="230" width="240" height="90" rx="20" fill="#10b981"></rect><path d="M176 230 L200 180 L312 180 L336 230 Z" fill="#10b981"></path><rect x="208" y="188" width="42" height="36" rx="6" fill="#0f172a" opacity="0.7"></rect><rect x="262" y="188" width="42" height="36" rx="6" fill="#0f172a" opacity="0.7"></rect><circle cx="186" cy="322" r="28" fill="#0f172a"></circle><circle cx="186" cy="322" r="16" fill="#1e293b"></circle><circle cx="186" cy="322" r="6" fill="#10b981"></circle><circle cx="326" cy="322" r="28" fill="#0f172a"></circle><circle cx="326" cy="322" r="16" fill="#1e293b"></circle><circle cx="326" cy="322" r="6" fill="#10b981"></circle><text x="256" y="390" font-family="system-ui, -apple-system, sans-serif" font-size="36" font-weight="700" fill="#10b981" text-anchor="middle" letter-spacing="2">COMPARE</text><rect x="136" y="248" width="18" height="12" rx="4" fill="#fbbf24"></rect><rect x="358" y="248" width="18" height="12" rx="4" fill="#fbbf24"></rect></svg>